Jump_normalized_Motion_pl14
version=1
nRows=19
nColumns=43
inDegrees=yes
endheader
time		pelvis_tilt		pelvis_list		pelvis_rotation		pelvis_tx		pelvis_ty		pelvis_tz		hip_flexion_r		hip_adduction_r		hip_rotation_r		knee_angle_r		ankle_angle_r		subtalar_angle_r		mtp_angle_r		hip_flexion_l		hip_adduction_l		hip_rotation_l		knee_angle_l		ankle_angle_l		subtalar_angle_l		mtp_angle_l		lumbar_extension		lumbar_bending		lumbar_rotation		neck_flexion		neck_lateral_bending		neck_rotation		arm_flex_r		arm_add_r		arm_rot_r		elbow_flex_r		pro_sup_r		wrist_flex_r		wrist_dev_r		hand_finger_flex_r		arm_flex_l		arm_add_l		arm_rot_l		elbow_flex_l		pro_sup_l		wrist_flex_l		wrist_dev_l		hand_finger_flex_l		
0.065000		3.957862		-12.254202		85.621659		0.048926		1.708635		1.925125		92.918391		5.103156		-7.450235		-139.495190		25.344142		-6.804491		7.413020		94.343232		-9.098936		2.699237		-144.128138		22.992540		-5.662041		7.965385		-61.076638		-1.486849		4.369188		42.408468		-2.104821		3.431967		43.255394		-18.244964		-0.943198		68.623016		97.989474		-3.929714		-0.162298		22.986764		30.318627		-22.744708		-8.141059		73.894646		94.835456		-4.315006		-0.968970		31.115558		
0.068737		3.937907		-12.369710		85.609641		0.049085		1.708711		1.923753		92.885825		5.138255		-7.448222		-139.504008		25.400552		-6.845201		7.227390		94.272939		-9.133284		2.676342		-144.125898		22.909705		-5.904702		8.027365		-60.901482		-1.506710		4.383444		42.478830		-2.137963		3.435708		44.300981		-18.179638		-0.582554		68.698547		97.909995		-3.784873		-0.182322		23.106666		31.432214		-22.938665		-7.778369		74.314832		94.822285		-4.420921		-0.880695		31.155783		
0.072475		3.920908		-12.530877		85.604138		0.049177		1.708801		1.922380		92.883756		5.167692		-7.439383		-139.485407		25.394692		-6.893502		7.129649		94.241925		-9.165393		2.669058		-144.105318		22.868119		-6.010788		8.064132		-60.685079		-1.507816		4.408079		42.454220		-2.173317		3.442125		45.265009		-18.058127		-0.358878		68.901664		97.846392		-3.741716		-0.203240		23.160067		32.510385		-23.023713		-7.559608		74.803606		94.785730		-4.467229		-0.872164		31.183353		
0.076212		3.899779		-12.666524		85.578919		0.049261		1.709037		1.920959		92.833122		5.218661		-7.422995		-139.489218		25.252367		-7.040750		7.009274		94.197958		-9.232717		2.610114		-144.107276		22.823742		-6.107104		8.129779		-60.485506		-1.519554		4.426087		42.626036		-2.220313		3.439960		46.388595		-18.048994		0.132043		68.968950		97.769378		-3.735758		-0.073433		23.248762		33.734187		-23.304105		-7.032182		75.152365		94.711815		-4.494558		-0.729805		31.258226		
0.079949		3.880765		-12.830108		85.580831		0.049305		1.709275		1.919516		92.792720		5.235094		-7.409330		-139.467206		25.131291		-7.122085		6.954195		94.173635		-9.288999		2.565386		-144.091921		22.796769		-6.122849		8.173061		-60.255776		-1.509357		4.452105		42.572721		-2.259475		3.447270		47.360231		-17.940515		0.384144		69.244446		97.711826		-3.791601		-0.023209		23.294627		34.840078		-23.387327		-6.774256		75.663365		94.594725		-4.525806		-0.714955		31.305092		
0.083687		3.826757		-12.924269		85.579580		0.049250		1.709691		1.918018		92.689025		5.233883		-7.357011		-139.495948		24.805711		-7.278578		6.926373		94.067326		-9.353468		2.472575		-144.094572		22.761221		-6.044101		8.302160		-60.091855		-1.509996		4.443322		42.645685		-2.319163		3.439780		48.458983		-18.018110		0.971449		69.517710		97.666856		-4.106748		0.338024		23.464093		36.105703		-23.721577		-6.101492		76.061568		94.139398		-4.613933		-0.536808		31.464621		
0.087424		3.809651		-13.118222		85.598883		0.049112		1.710045		1.916531		92.650397		5.207292		-7.325846		-139.490385		24.608758		-7.227197		6.961052		94.080589		-9.391540		2.427093		-144.093515		22.729173		-5.940654		8.374974		-59.822086		-1.467892		4.457695		42.706093		-2.355101		3.439289		49.520613		-17.967296		1.342588		69.759686		97.735472		-4.266059		0.534660		23.586835		37.321098		-23.873870		-5.673195		76.479616		93.856667		-4.615145		-0.501904		31.555312		
0.091162		3.769493		-13.286590		85.627879		0.048954		1.710506		1.914989		92.568500		5.147747		-7.280859		-139.487300		24.453062		-7.139289		7.044550		94.038421		-9.408586		2.377516		-144.080019		22.688142		-5.790313		8.463057		-59.578924		-1.435259		4.448970		42.724313		-2.391372		3.438308		50.565785		-17.950579		1.720552		70.097412		97.860388		-4.462821		0.761978		23.768101		38.558855		-24.068666		-5.174476		76.930307		93.408448		-4.594237		-0.486643		31.658103		
0.094899		3.725583		-13.477059		85.670590		0.048863		1.711077		1.913455		92.495193		5.086696		-7.222573		-139.463381		24.364823		-7.044698		7.153911		93.989081		-9.421289		2.332826		-144.044190		22.641868		-5.633039		8.555694		-59.329409		-1.397979		4.443103		42.775947		-2.410305		3.429816		51.639950		-17.924167		2.090896		70.451662		97.999126		-4.634863		0.960944		23.982121		39.841179		-24.262869		-4.623112		77.384708		92.878466		-4.555509		-0.489125		31.751782		
0.098636		3.679160		-13.672082		85.678508		0.048715		1.711634		1.911816		92.407164		5.029205		-7.205712		-139.406906		24.354674		-6.990840		7.260951		93.939471		-9.401921		2.316118		-143.997389		22.598217		-5.514598		8.636977		-59.048393		-1.394184		4.429971		42.745415		-2.432357		3.423575		52.612014		-17.876216		2.351673		70.858689		98.093750		-4.775544		1.054128		24.174317		41.056541		-24.397508		-4.200175		77.893698		92.363858		-4.534805		-0.537313		31.815291		
0.102374		3.635219		-13.839466		85.723209		0.048636		1.712350		1.910185		92.283926		4.970392		-7.161111		-139.349760		24.409904		-7.005281		7.446959		93.845740		-9.363092		2.295665		-143.927833		22.496434		-5.340865		8.773658		-58.823041		-1.373351		4.445298		42.776982		-2.427787		3.395920		53.627687		-18.005904		2.824465		71.380654		98.258981		-5.059084		1.170987		24.471077		42.414667		-24.722287		-3.408008		78.361552		91.439742		-4.470220		-0.565710		31.925618		
0.106111		3.625673		-14.149055		85.712141		0.048632		1.713124		1.908660		92.284692		4.968457		-7.170299		-139.196713		24.503473		-7.071609		7.546643		93.886451		-9.345005		2.316317		-143.829246		22.445965		-5.283121		8.846442		-58.445096		-1.374449		4.470094		42.888068		-2.428554		3.389947		54.735667		-17.918585		3.154471		71.623151		98.353800		-5.218979		1.202508		24.600183		43.745335		-24.786741		-3.011341		78.749388		91.070695		-4.474245		-0.586201		31.967326		
0.109848		3.626432		-14.440686		85.712786		0.048674		1.713929		1.907088		92.264576		4.981438		-7.186968		-139.045782		24.620220		-7.193571		7.657443		93.907294		-9.330350		2.350393		-143.725803		22.350338		-5.208530		8.930130		-58.088736		-1.365171		4.506326		42.933925		-2.419843		3.404184		55.821284		-17.951960		3.637987		72.004359		98.519037		-5.468911		1.211953		24.731055		45.084900		-24.990105		-2.458256		79.202526		90.658472		-4.411407		-0.597770		32.059211		
0.113586		3.655851		-14.690126		85.696409		0.048838		1.714882		1.905433		92.184850		5.046968		-7.240412		-138.875670		24.662758		-7.397069		7.893653		93.868931		-9.366230		2.423253		-143.623149		22.259182		-5.094207		9.156802		-57.764465		-1.370447		4.580537		42.903846		-2.414116		3.403964		56.892679		-17.973579		4.208664		72.422121		98.719704		-6.351070		1.284963		25.102065		46.466106		-25.265404		-1.728876		79.619114		89.698187		-4.595728		-0.574115		32.301921		
0.117323		3.698566		-14.982179		85.686085		0.048902		1.715831		1.903751		92.129960		5.123633		-7.263160		-138.699749		24.703120		-7.539718		8.133395		93.868993		-9.414163		2.470764		-143.513631		22.220721		-5.000422		9.400879		-57.392161		-1.335967		4.627279		42.875380		-2.430358		3.415271		58.006732		-17.871357		4.694868		72.759140		98.809439		-7.074035		1.363644		25.598124		47.788627		-25.529262		-1.105724		80.066349		88.944532		-4.852368		-0.529791		32.561190		
0.121061		3.728155		-15.299386		85.699553		0.048888		1.716804		1.902013		92.066678		5.177669		-7.235739		-138.526614		24.816487		-7.526503		8.202093		93.876811		-9.448778		2.476568		-143.388014		22.190732		-4.949700		9.467955		-56.984876		-1.279583		4.610425		42.843907		-2.418259		3.478679		59.149689		-17.635037		4.975785		72.987229		98.868679		-7.108091		1.386343		25.785257		49.074172		-25.734221		-0.709342		80.544415		88.956169		-4.813425		-0.493890		32.668165		
0.124798		3.752675		-15.583058		85.731228		0.048873		1.717938		1.900194		91.926387		5.215685		-7.188788		-138.342968		24.949355		-7.463504		8.273117		93.821060		-9.487989		2.468214		-143.240717		22.167004		-4.886573		9.534348		-56.612602		-1.215194		4.578176		42.801294		-2.407909		3.539080		60.297504		-17.356980		5.204555		73.195696		98.909989		-7.176811		1.424511		25.970453		50.399008		-25.947148		-0.281506		80.994441		88.906195		-4.796250		-0.441706		32.765789		
0.128535		3.692386		-15.740866		85.779742		0.048767		1.719451		1.898228		91.609779		5.169317		-7.017168		-138.163723		25.164453		-7.150941		8.448694		93.556431		-9.491608		2.340643		-143.042477		22.169298		-4.808907		9.724960		-56.383237		-1.189521		4.471332		42.742290		-2.379027		3.577395		61.458870		-17.092544		5.416763		73.419411		98.700103		-7.419977		1.528196		26.554944		51.822362		-26.193454		0.320662		81.427317		88.507202		-5.108350		-0.320414		32.916398		
0.132273		3.618861		-15.957442		85.814836		0.048623		1.720926		1.896252		91.380953		5.114017		-6.830275		-137.981305		25.311710		-6.839736		8.634117		93.339947		-9.512225		2.185905		-142.832590		22.172181		-4.776348		9.956216		-56.088473		-1.162536		4.370598		42.698585		-2.409552		3.595710		62.606205		-16.847615		5.644213		73.648532		98.411098		-7.724909		1.615386		27.240497		53.242103		-26.391158		0.893487		81.832931		88.091404		-5.492932		-0.210412		33.087572		
